<svg width="30" height="30" viewBox="0 0 30 30" fill="none" xmlns="http://www.w3.org/2000/svg">
<path fill-rule="evenodd" clip-rule="evenodd" d="M2.34257e-07 12.2622L0 17.6195C2.31461 17.6195 4.60656 17.1637 6.74499 16.2783C8.88342 15.3928 10.8264 14.095 12.4631 12.4588C14.0998 10.8227 15.3981 8.88037 16.2838 6.74268C17.1696 4.60499 17.6255 2.31382 17.6255 0H12.2654C12.2612 1.6035 11.9432 3.1908 11.3293 4.67244C10.7112 6.16412 9.80524 7.5195 8.66316 8.66119C7.52108 9.80288 6.16523 10.7085 4.67304 11.3264C3.1912 11.94 1.60371 12.2579 2.34257e-07 12.2622Z" fill="#4F2EF1"/>
<path fill-rule="evenodd" clip-rule="evenodd" d="M12.2654 29.8823L17.6255 29.8823C17.6255 27.5685 17.1696 25.2773 16.2838 23.1396C15.3981 21.002 14.0998 19.0596 12.4631 17.4235C10.8264 15.7874 8.88341 14.4895 6.74499 13.6041C4.60656 12.7186 2.31461 12.2629 -7.70432e-07 12.2629L-5.36183e-07 17.6201C1.60371 17.6245 3.1912 17.9423 4.67304 18.5559C6.16523 19.1738 7.52108 20.0794 8.66316 21.2211C9.80524 22.3628 10.7112 23.7182 11.3293 25.2099C11.9432 26.6915 12.2612 28.2788 12.2654 29.8823Z" fill="#7847F8"/>
<path fill-rule="evenodd" clip-rule="evenodd" d="M29.8828 17.6193L29.8828 12.2629C27.5682 12.2629 25.2762 12.7186 23.1378 13.6041C20.9994 14.4895 19.0564 15.7874 17.4197 17.4235C15.783 19.0596 14.4847 21.002 13.599 23.1396C12.7132 25.2773 12.2573 27.5685 12.2573 29.8823L17.6174 29.8823C17.6215 28.2785 17.9395 26.691 18.5535 25.2091C19.1716 23.7174 20.0776 22.362 21.2197 21.2203C22.3617 20.0786 23.7176 19.173 25.2098 18.5551C26.6916 17.9415 28.2791 17.6237 29.8828 17.6193Z" fill="#A774FE"/>
<path fill-rule="evenodd" clip-rule="evenodd" d="M29.8516 12.2622L29.8516 17.6195C27.5369 17.6195 25.245 17.1637 23.1066 16.2783C20.9681 15.3928 19.0251 14.095 17.3884 12.4588C15.7518 10.8227 14.4535 8.88037 13.5677 6.74268C12.682 4.60499 12.2261 2.31382 12.2261 -1.54034e-06L17.5861 -1.07191e-06C17.5904 1.6035 17.9084 3.1908 18.5223 4.67244C19.1404 6.16412 20.0463 7.5195 21.1884 8.66119C22.3305 9.80288 23.6863 10.7085 25.1785 11.3264C26.6604 11.94 28.2479 12.2579 29.8516 12.2622Z" fill="#D3BAFF"/>
</svg>
